<svg width="94" height="58" viewBox="0 0 94 58" fill="none" xmlns="http://www.w3.org/2000/svg">
<path d="M55.0402 6.81969L49.2802 2.78969C47.7102 1.68969 45.3002 1.74969 43.7902 2.91969L38.7802 6.82969C37.7802 7.60969 36.9902 9.20969 36.9902 10.4697V17.3697C36.9902 19.9197 39.0602 21.9997 41.6102 21.9997H52.3902C54.9402 21.9997 57.0102 19.9297 57.0102 17.3797V10.5997C57.0102 9.24969 56.1402 7.58969 55.0402 6.81969ZM47.7502 17.9997C47.7502 18.4097 47.4102 18.7497 47.0002 18.7497C46.5902 18.7497 46.2502 18.4097 46.2502 17.9997V14.9997C46.2502 14.5897 46.5902 14.2497 47.0002 14.2497C47.4102 14.2497 47.7502 14.5897 47.7502 14.9997V17.9997Z" fill="#7F51F9"/>
<path d="M25.3472 49V37.7266H27.7066V42.3047H32.7847V37.7266H35.1441V49H32.7847V44.25H27.7066V49H25.3472ZM41.1522 49.1797C40.272 49.1797 39.5142 49.0026 38.8787 48.6484C38.2433 48.2891 37.7564 47.776 37.4178 47.1094C37.0793 46.4375 36.91 45.6354 36.91 44.7031V44.6875C36.91 43.7604 37.0819 42.9635 37.4256 42.2969C37.7694 41.6302 38.2564 41.1172 38.8866 40.7578C39.522 40.3932 40.2772 40.2109 41.1522 40.2109C42.0272 40.2109 42.7798 40.3906 43.41 40.75C44.0454 41.1094 44.535 41.625 44.8787 42.2969C45.2225 42.9635 45.3944 43.7604 45.3944 44.6875V44.7031C45.3944 45.6354 45.2251 46.4375 44.8866 47.1094C44.548 47.776 44.061 48.2891 43.4256 48.6484C42.7954 49.0026 42.0376 49.1797 41.1522 49.1797ZM41.1522 47.3906C41.5584 47.3906 41.9022 47.2839 42.1834 47.0703C42.4647 46.8568 42.6808 46.5495 42.8319 46.1484C42.9829 45.7474 43.0584 45.2656 43.0584 44.7031V44.6875C43.0584 44.125 42.9829 43.6458 42.8319 43.25C42.6808 42.849 42.4621 42.5417 42.1756 42.3281C41.8944 42.1094 41.5532 42 41.1522 42C40.7511 42 40.4074 42.1094 40.1209 42.3281C39.8397 42.5417 39.6235 42.849 39.4725 43.25C39.3215 43.6458 39.2459 44.125 39.2459 44.6875V44.7031C39.2459 45.2708 39.3189 45.7552 39.4647 46.1562C39.6157 46.5573 39.8319 46.8646 40.1131 47.0781C40.3996 47.2865 40.7459 47.3906 41.1522 47.3906ZM46.9338 49V40.3984H49.215V41.7422H49.3556C49.5379 41.2578 49.84 40.8828 50.2619 40.6172C50.6838 40.3464 51.1759 40.2109 51.7384 40.2109C52.1291 40.2109 52.4832 40.276 52.8009 40.4062C53.1186 40.5312 53.3895 40.7109 53.6134 40.9453C53.8374 41.1797 54.0093 41.4635 54.1291 41.7969H54.2697C54.3999 41.4792 54.5926 41.2031 54.8478 40.9688C55.103 40.7292 55.4025 40.5443 55.7463 40.4141C56.09 40.2786 56.4624 40.2109 56.8634 40.2109C57.4364 40.2109 57.9285 40.3281 58.34 40.5625C58.7567 40.7969 59.077 41.1302 59.3009 41.5625C59.5301 41.9896 59.6447 42.5 59.6447 43.0938V49H57.3634V43.6641C57.3634 43.3151 57.3114 43.026 57.2072 42.7969C57.103 42.5677 56.9442 42.3958 56.7306 42.2812C56.5223 42.1615 56.2593 42.1016 55.9416 42.1016C55.6343 42.1016 55.366 42.1719 55.1369 42.3125C54.9129 42.4531 54.7384 42.6432 54.6134 42.8828C54.4884 43.1224 54.4259 43.3984 54.4259 43.7109V49H52.1447V43.5625C52.1447 43.2552 52.0874 42.9922 51.9728 42.7734C51.8634 42.5547 51.702 42.388 51.4884 42.2734C51.2801 42.1589 51.0275 42.1016 50.7306 42.1016C50.4338 42.1016 50.1707 42.1771 49.9416 42.3281C49.7176 42.474 49.5405 42.6771 49.4103 42.9375C49.2801 43.1927 49.215 43.4844 49.215 43.8125V49H46.9338ZM65.3169 49.1797C64.4471 49.1797 63.6971 49 63.0669 48.6406C62.4419 48.276 61.9601 47.7604 61.6216 47.0938C61.283 46.4271 61.1138 45.6328 61.1138 44.7109V44.7031C61.1138 43.7917 61.2804 43 61.6138 42.3281C61.9523 41.6562 62.4289 41.1354 63.0434 40.7656C63.6632 40.3958 64.3898 40.2109 65.2231 40.2109C66.0617 40.2109 66.7856 40.3906 67.395 40.75C68.0044 41.1094 68.4731 41.612 68.8013 42.2578C69.1294 42.9036 69.2934 43.6615 69.2934 44.5312V45.2422H62.2544V43.8125H68.1997L67.1294 45.1641V44.25C67.1294 43.7344 67.0486 43.3047 66.8872 42.9609C66.7309 42.6172 66.5122 42.3594 66.2309 42.1875C65.9549 42.0104 65.632 41.9219 65.2622 41.9219C64.8976 41.9219 64.5721 42.013 64.2856 42.1953C64.0044 42.3724 63.7804 42.6354 63.6138 42.9844C63.4523 43.3281 63.3716 43.75 63.3716 44.25V45.1719C63.3716 45.6562 63.4523 46.0703 63.6138 46.4141C63.7752 46.7578 64.0044 47.0208 64.3013 47.2031C64.5981 47.3854 64.9523 47.4766 65.3638 47.4766C65.6971 47.4766 65.9809 47.4271 66.2153 47.3281C66.4497 47.2292 66.6372 47.1146 66.7778 46.9844C66.9236 46.849 67.0226 46.7266 67.0747 46.6172L67.0981 46.5703H69.2231L69.2075 46.6484C69.1398 46.9193 69.0174 47.2031 68.8403 47.5C68.6632 47.7917 68.4184 48.0651 68.1059 48.3203C67.7986 48.5755 67.4132 48.7839 66.9497 48.9453C66.4914 49.1016 65.9471 49.1797 65.3169 49.1797Z" fill="#7F51F9"/>
</svg>
