<svg width="94" height="58" viewBox="0 0 94 58" fill="none" xmlns="http://www.w3.org/2000/svg">
<path d="M55.04 6.81969L49.28 2.78969C47.71 1.68969 45.3 1.74969 43.79 2.91969L38.78 6.82969C37.78 7.60969 36.99 9.20969 36.99 10.4697V17.3697C36.99 19.9197 39.06 21.9997 41.61 21.9997H52.39C54.94 21.9997 57.01 19.9297 57.01 17.3797V10.5997C57.01 9.24969 56.14 7.58969 55.04 6.81969ZM47.75 17.9997C47.75 18.4097 47.41 18.7497 47 18.7497C46.59 18.7497 46.25 18.4097 46.25 17.9997V14.9997C46.25 14.5897 46.59 14.2497 47 14.2497C47.41 14.2497 47.75 14.5897 47.75 14.9997V17.9997Z" fill="#FDFDFD"/>
<path d="M26.7222 49V37.7266H28.1284V42.6016H34.3159V37.7266H35.7222V49H34.3159V43.8672H28.1284V49H26.7222ZM41.5662 49.1484C40.7694 49.1484 40.0793 48.974 39.4959 48.625C38.9178 48.2708 38.4699 47.7682 38.1522 47.1172C37.8397 46.4661 37.6834 45.6927 37.6834 44.7969V44.7812C37.6834 43.8802 37.8397 43.1042 38.1522 42.4531C38.4699 41.8021 38.9178 41.3021 39.4959 40.9531C40.0793 40.6042 40.7694 40.4297 41.5662 40.4297C42.3683 40.4297 43.0584 40.6042 43.6366 40.9531C44.2147 41.3021 44.66 41.8021 44.9725 42.4531C45.2902 43.1042 45.4491 43.8802 45.4491 44.7812V44.7969C45.4491 45.6927 45.2902 46.4661 44.9725 47.1172C44.66 47.7682 44.2147 48.2708 43.6366 48.625C43.0584 48.974 42.3683 49.1484 41.5662 49.1484ZM41.5662 47.9453C42.0975 47.9453 42.548 47.8203 42.9178 47.5703C43.2876 47.3203 43.5689 46.9609 43.7616 46.4922C43.9595 46.0234 44.0584 45.4583 44.0584 44.7969V44.7812C44.0584 44.1146 43.9595 43.5469 43.7616 43.0781C43.5689 42.6094 43.2876 42.2526 42.9178 42.0078C42.548 41.7578 42.0975 41.6328 41.5662 41.6328C41.035 41.6328 40.5845 41.7578 40.2147 42.0078C39.8449 42.2526 39.561 42.6094 39.3631 43.0781C39.1704 43.5469 39.0741 44.1146 39.0741 44.7812V44.7969C39.0741 45.4583 39.1704 46.0234 39.3631 46.4922C39.561 46.9609 39.8449 47.3203 40.2147 47.5703C40.5845 47.8203 41.035 47.9453 41.5662 47.9453ZM47.2384 49V40.5781H48.5978V41.8594H48.7228C48.9103 41.4062 49.1968 41.0547 49.5822 40.8047C49.9728 40.5547 50.4442 40.4297 50.9963 40.4297C51.3765 40.4297 51.7176 40.4922 52.0197 40.6172C52.3218 40.7422 52.5822 40.9167 52.8009 41.1406C53.0197 41.3594 53.1942 41.6146 53.3244 41.9062H53.4494C53.6004 41.6094 53.8035 41.3516 54.0588 41.1328C54.314 40.9089 54.6082 40.737 54.9416 40.6172C55.2801 40.4922 55.6421 40.4297 56.0275 40.4297C56.6004 40.4297 57.0848 40.5365 57.4806 40.75C57.8817 40.9635 58.1864 41.276 58.3947 41.6875C58.603 42.0938 58.7072 42.5911 58.7072 43.1797V49H57.3478V43.4922C57.3478 43.0755 57.2827 42.7318 57.1525 42.4609C57.0275 42.1849 56.8348 41.9792 56.5744 41.8438C56.314 41.7031 55.9858 41.6328 55.59 41.6328C55.1994 41.6328 54.8582 41.7214 54.5666 41.8984C54.2749 42.0755 54.0483 42.3125 53.8869 42.6094C53.7254 42.901 53.6447 43.2266 53.6447 43.5859V49H52.2853V43.2812C52.2853 42.9479 52.2124 42.6589 52.0666 42.4141C51.9259 42.1641 51.7228 41.9714 51.4572 41.8359C51.1968 41.7005 50.8895 41.6328 50.5353 41.6328C50.1707 41.6328 49.84 41.7292 49.5431 41.9219C49.2515 42.1146 49.0197 42.375 48.8478 42.7031C48.6811 43.026 48.5978 43.3854 48.5978 43.7812V49H47.2384ZM64.2778 49.1484C63.4757 49.1484 62.7856 48.9714 62.2075 48.6172C61.6346 48.263 61.1919 47.763 60.8794 47.1172C60.5721 46.4661 60.4184 45.7005 60.4184 44.8203V44.8125C60.4184 43.9427 60.5721 43.1797 60.8794 42.5234C61.1919 41.8672 61.632 41.3542 62.1997 40.9844C62.7674 40.6146 63.4315 40.4297 64.1919 40.4297C64.9575 40.4297 65.6138 40.6068 66.1606 40.9609C66.7127 41.3151 67.1346 41.8099 67.4263 42.4453C67.7231 43.0755 67.8716 43.8099 67.8716 44.6484V45.1797H61.1216V44.0938H67.1763L66.5044 45.0859V44.5469C66.5044 43.8854 66.4054 43.3411 66.2075 42.9141C66.0096 42.487 65.7361 42.1693 65.3872 41.9609C65.0382 41.7474 64.6372 41.6406 64.1841 41.6406C63.7309 41.6406 63.3247 41.7526 62.9653 41.9766C62.6111 42.1953 62.3299 42.5208 62.1216 42.9531C61.9132 43.3854 61.8091 43.9167 61.8091 44.5469V45.0859C61.8091 45.6849 61.9106 46.1979 62.1138 46.625C62.3169 47.0469 62.6059 47.3724 62.9809 47.6016C63.3559 47.8255 63.7986 47.9375 64.3091 47.9375C64.6893 47.9375 65.02 47.8854 65.3013 47.7812C65.5825 47.6771 65.8143 47.5443 65.9966 47.3828C66.1789 47.2214 66.3065 47.0573 66.3794 46.8906L66.4106 46.8203H67.77L67.7544 46.8828C67.6815 47.1693 67.5513 47.4479 67.3638 47.7188C67.1815 47.9844 66.9445 48.2266 66.6528 48.4453C66.3611 48.6589 66.0148 48.8307 65.6138 48.9609C65.2179 49.0859 64.7726 49.1484 64.2778 49.1484Z" fill="#FDFDFD"/>
</svg>
